PathFileType	4	(X/Y/Z)	25_coords_data.trc
DataRate	CameraRate	NumFrames	NumMarkers	Units	OrigDataRate	OrigDataStartFrame	OrigNumFrames
30.0	30.0	5	21	m	30.0	11	65
Frame#	Time	THUMB_TIP	THUMB_IP	THUMB_MCP	THUMB_CMC	INDEX_TIP	INDEX_DIP	INDEX_PIP	INDEX_MCP	MIDDLE_TIP	MIDDLE_DIP	MIDDLE_PIP	MIDDLE_MCP	RING_TIP	RING_DIP	RING_PIP	RING_MCP	PINKY_TIP	PINKY_DIP	PINKY_PIP	PINKY_MCP	WRIST
X1	Y1	Z1	X2	Y2	Z2	X3	Y3	Z3	X4	Y4	Z4	X5	Y5	Z5	X6	Y6	Z6	X7	Y7	Z7	X8	Y8	Z8	X9	Y9	Z9	X10	Y10	Z10	X11	Y11	Z11	X12	Y12	Z12	X13	Y13	Z13	X14	Y14	Z14	X15	Y15	Z15	X16	Y16	Z16	X17	Y17	Z17	X18	Y18	Z18	X19	Y19	Z19	X20	Y20	Z20	X21	Y21	Z21
10	0.3333333333333333	-0.01761079978942871	0.0502052001953125	0.901885009765625	-0.017900899887084962	0.025551799774169923	0.9068460083007812	-0.035020401000976566	0.01054170036315918	0.9285980224609375	-0.051737098693847655	0.022363300323486327	0.9516489868164062	-0.047252700805664065	0.013586299896240234	0.9107459716796875	-0.030650299072265626	0.01509160041809082	0.900905029296875	-0.029166500091552736	0.012502400398254395	0.8785750122070313	-0.07102059936523437	0.010840700149536133	0.8883300170898437	-0.033973499298095705	0.028856300354003907	0.9137119750976562	-0.03230419921875	0.03143079948425293	0.9089609985351562	-0.029327199935913085	0.03411130142211914	0.8834099731445313	-0.07415740203857422	0.03411380004882812	0.887739013671875	-0.04190459823608399	0.04153779983520508	0.9255349731445313	-0.034741199493408204	0.044622001647949217	0.9155540161132812	-0.028922800064086915	0.05118989944458008	0.8911959838867187	-0.07125559997558593	0.054106201171875	0.895260986328125	-0.04093539810180664	0.05480569839477539	0.9264990234375	-0.028816299438476564	0.05695349884033203	0.9177100219726563	-0.028826299667358397	0.06439830017089844	0.90164599609375	-0.061714298248291014	0.06884279632568359	0.9071699829101563	-0.08535710144042968	0.03587969970703125	0.974416015625
11	0.36666666666666664	-0.017610200881958006	0.050209098815917966	0.902208984375	-0.017735599517822265	0.025578100204467772	0.90672802734375	-0.034746498107910154	0.010200599670410156	0.9283740234375	-0.05183649826049805	0.022359899520874024	0.951697998046875	-0.047194900512695315	0.013507800102233887	0.9107739868164062	-0.03064150047302246	0.014954500198364258	0.9009000244140625	-0.02906450080871582	0.012610199928283692	0.8786439819335937	-0.07077310180664062	0.010749199867248534	0.88818798828125	-0.0335354995727539	0.028708099365234375	0.913458984375	-0.03206079864501953	0.03138190078735351	0.9089080200195313	-0.029237899780273437	0.03404140090942383	0.8833410034179687	-0.0740821990966797	0.03408570098876953	0.8877860107421875	-0.03883689880371094	0.04105659866333008	0.9228259887695313	-0.03444269943237305	0.04457709884643555	0.9155640258789063	-0.0288439998626709	0.05112260055541992	0.891135009765625	-0.07113249969482421	0.054097499847412106	0.8951119995117187	-0.04077330017089844	0.05462260055541992	0.9265079956054687	-0.028613899230957033	0.05686399841308594	0.91777001953125	-0.028762500762939455	0.06436990356445313	0.9017069702148437	-0.06164369964599609	0.0687779998779297	0.9071110229492187	-0.08560810089111329	0.035987098693847655	0.9744940185546875
12	0.4	-0.01743499946594238	0.05000870132446289	0.9022210083007812	-0.017705799102783203	0.02541860008239746	0.906948974609375	-0.03475699996948242	0.010230299949645996	0.9285040283203125	-0.05178570175170898	0.022165199279785157	0.9516320190429688	-0.047102401733398434	0.013399399757385255	0.9106939697265625	-0.03055620002746582	0.014921199798583985	0.900906982421875	-0.02904560089111328	0.012451899528503419	0.8786199951171875	-0.07085479736328125	0.010707900047302247	0.8885809936523438	-0.03344969940185547	0.028507499694824218	0.9137570190429688	-0.03202909851074219	0.03126749992370605	0.9089010009765625	-0.029146299362182618	0.0339463996887207	0.883427001953125	-0.07396659851074219	0.034053298950195314	0.8879550170898437	-0.040914901733398436	0.04086999893188477	0.9252039794921875	-0.03434600067138672	0.04447570037841797	0.9156129760742188	-0.02874449920654297	0.05112670135498047	0.8913709716796875	-0.07101360321044922	0.05403350067138672	0.8953309936523437	-0.040712600708007814	0.05454339981079102	0.9265560302734375	-0.028707300186157227	0.056653099060058595	0.9182039794921875	-0.02864419937133789	0.06428079986572266	0.9017680053710937	-0.06147389984130859	0.06872840118408204	0.9073200073242188	-0.08547149658203125	0.03570339965820313	0.974010009765625
13	0.43333333333333335	-0.017331499099731446	0.04996900177001953	0.9023870239257813	-0.01752440071105957	0.02527939987182617	0.907093017578125	-0.034834999084472656	0.010167400360107421	0.9284660034179687	-0.05166059875488281	0.022135000228881836	0.951843017578125	-0.04707830047607422	0.013303199768066406	0.9108179931640625	-0.03047559928894043	0.014798100471496583	0.9009860229492187	-0.02883799934387207	0.012406399726867676	0.8787260131835938	-0.07071269989013672	0.010726099967956542	0.8886420288085938	-0.033628101348876956	0.02856909942626953	0.9138660278320313	-0.03200149917602539	0.03119820022583008	0.9090830078125	-0.028980100631713867	0.03393349838256836	0.8834829711914063	-0.07381629943847656	0.03410390090942383	0.8877940063476563	-0.041057598114013674	0.04076190185546875	0.9253909912109375	-0.0343114013671875	0.04442340087890625	0.915781005859375	-0.02854159927368164	0.051098899841308595	0.8915599975585937	-0.07072940063476563	0.05400130081176758	0.8950770263671874	-0.04077080154418945	0.05460749816894531	0.9265590209960938	-0.02851420021057129	0.05664810180664062	0.9179400024414063	-0.028461500167846678	0.0641968994140625	0.9020490112304688	-0.06139030075073242	0.06871920013427735	0.9073809814453125	-0.0854937973022461	0.03572159957885742	0.9742789916992187
14	0.4666666666666667	-0.017261699676513673	0.049965999603271485	0.902572998046875	-0.017421899795532228	0.025436899185180665	0.9070269775390625	-0.034652198791503906	0.010147899627685546	0.9284099731445312	-0.05176029968261719	0.022161699295043944	0.9517109985351563	-0.04688759994506836	0.013316599845886231	0.9108090209960937	-0.030427499771118163	0.014842700004577637	0.900905029296875	-0.028760700225830077	0.012477899551391601	0.8787369995117188	-0.0706052017211914	0.010822500228881836	0.8884130249023438	-0.03347809982299805	0.02878070068359375	0.9133460083007813	-0.03211899948120117	0.031243900299072265	0.9091099853515625	-0.028888200759887694	0.0340359001159668	0.883531982421875	-0.07360900115966797	0.034213001251220704	0.887593994140625	-0.041644500732421874	0.04074349975585938	0.9253140258789062	-0.034362998962402344	0.0444989013671875	0.9159099731445313	-0.0285310001373291	0.05109360122680664	0.8915789794921875	-0.07070680236816407	0.05418769836425781	0.89522998046875	-0.04052750015258789	0.05467649841308594	0.9268510131835938	-0.028448400497436525	0.05670169830322266	0.9180889892578125	-0.028343000411987306	0.06423760223388672	0.90214697265625	-0.061242599487304684	0.06879209899902344	0.9073569946289063	-0.08542990112304688	0.03567390060424805	0.9742009887695312
